<svg xmlns="http://www.w3.org/2000/svg" width="191.915" height="179.47" viewBox="0 0 191.915 179.47">
  <g id="Grupo_1593" data-name="Grupo 1593" transform="translate(-151.818 -1131.842)">
    <path id="Trazado_21899" data-name="Trazado 21899" d="M309.658,1592.181H152.448a.63.63,0,1,1,0-1.26H309.658a.63.63,0,1,1,0,1.26Z" transform="translate(0 -299.176)" fill="#6a2810"/>
    <path id="Trazado_21900" data-name="Trazado 21900" d="M540.1,1402.1a33.911,33.911,0,0,0-2.091,2.738c-10.128,14.722-14.352,42.469-25.32,49.464-11.69,7.458-26.4-1.008-29.225-17.132l15.721-14.8s5.131,11.635,8.465,6.735c2.675-3.93,17.334-24.4,22.977-32.273,1.377-1.919,2.217-3.091,2.217-3.091Z" transform="translate(-216.127 -170.679)" fill="#ffaf82"/>
    <path id="Trazado_21901" data-name="Trazado 21901" d="M647.686,1363.306s1.915,3.527-6.349,7.861-8.566,5.24-13,6.853a33.906,33.906,0,0,0-2.091,2.738l-7.382-8,2.217-3.091a16.289,16.289,0,0,1,2.519-7.264c2.318-3.527,2.923-6.046,4.737-5.543s-.6,5.845,0,6.349,16.628-7.986,18.744-3.641C647.081,1359.564,648.9,1360.686,647.686,1363.306Z" transform="translate(-304.368 -146.597)" fill="#ffaf82"/>
    <path id="Trazado_21902" data-name="Trazado 21902" d="M482.121,1410.215s-8.881,13.63-21.755,20.516a34.141,34.141,0,0,1-7.835,3.078v0c-.223-.436-12.719-25.412-6.509-69.052l3.674.827,2.721.613s11.967,3.51,15.192,14.6S482.121,1410.215,482.121,1410.215Z" transform="translate(-190.603 -151.784)" fill="#ff630c"/>
    <path id="Trazado_21903" data-name="Trazado 21903" d="M655.3,1369.859a.63.63,0,0,1-.263-1.2c5.911-2.705,15.094-5.654,15.186-5.683a.63.63,0,1,1,.384,1.2c-.091.029-9.2,2.955-15.046,5.629A.631.631,0,0,1,655.3,1369.859Z" transform="translate(-327.701 -150.605)" fill="#fe976a"/>
    <path id="Trazado_21904" data-name="Trazado 21904" d="M351.914,1424.506a101.61,101.61,0,0,0,.256,10.351H289.9v-76.472l2.406-.571.395-.092,2.028-.479.806-.189,8.138-1.923,5.173-1.222,1.885-.445,6.9-1.634,5.719-1.352,6.177,1.394,5.958,1.34,2.755.621L343.42,1355l1.986.449,3.683.827,2.712.613s-2.948,8.146,0,21.751c1.436,6.639,2.427,10.976,2.742,15.536.34,4.787-.063,9.821-1.457,18.022a87.916,87.916,0,0,0-1.171,12.3Z" transform="translate(-89.986 -142.482)" fill="#ff630c"/>
    <path id="Trazado_21905" data-name="Trazado 21905" d="M350.992,1487H288.721a.63.63,0,0,1,0-1.26h61.594c-.224-3.238-.295-6.51-.209-9.737a88.5,88.5,0,0,1,1.18-12.4c1.38-8.119,1.787-13.13,1.45-17.873a98.3,98.3,0,0,0-2.437-14.1l-.292-1.349a.63.63,0,1,1,1.231-.266l.292,1.348a99.064,99.064,0,0,1,2.463,14.278c.344,4.85-.066,9.945-1.464,18.171a87.289,87.289,0,0,0-1.163,12.214,100.91,100.91,0,0,0,.255,10.29.63.63,0,0,1-.628.677Z" transform="translate(-88.808 -193.994)" fill="#6a2810"/>
    <path id="Trazado_21906" data-name="Trazado 21906" d="M395.845,1368.333c-3.221,1.449-8.717-.89-8.213-5.324,0,0,2.259-6.177,5.568-8.528l5.958,1.34C401.118,1359.31,400.631,1366.184,395.845,1368.333Z" transform="translate(-153.656 -145.091)" fill="#fff"/>
    <path id="Trazado_21907" data-name="Trazado 21907" d="M352.044,1367.755c-4.464-2-5.19-8.117-3.679-11.761l6.9-1.634c2.994,2.6,4.989,8.071,4.989,8.071C360.761,1366.865,355.264,1369.2,352.044,1367.755Z" transform="translate(-127.621 -145.012)" fill="#fff"/>
    <path id="Trazado_21908" data-name="Trazado 21908" d="M312.47,1537.317l-3.548,10.468s-1.2.13-3.271.349c-11.753,1.218-51.724,5.135-62.515,3.078-5.95-1.134-8.226-4.7-8.864-9.376-.718-5.3.667-12.026,1.205-18.236,0,0,23.178-.6,23.871,5.643a4.058,4.058,0,0,0,2.255,2.838c6.235,3.783,23.951,4.547,35.75,4.216a94.947,94.947,0,0,1,11.569.193C312.184,1536.813,312.47,1537.317,312.47,1537.317Z" transform="translate(-53.603 -255.293)" fill="#ffaf82"/>
    <path id="Trazado_21909" data-name="Trazado 21909" d="M442.14,1589.67c-2.268,1.663-3.779.453-3.779.453-3.326,1.209-3.364-1.209-3.364-1.209-3.363.907-3.59-1.965-3.59-1.965-2.268-.151-1.814-3.023,1.948-6.651a10.938,10.938,0,0,0,3.271-8.365s-1.2.13-3.271.349l3.271-11.644c3.263.324,3.548.827,3.548.827a11.739,11.739,0,0,1,7.407,10.468C448.035,1580.046,444.407,1588.007,442.14,1589.67Z" transform="translate(-181.307 -279.441)" fill="#ffaf82"/>
    <path id="Trazado_21910" data-name="Trazado 21910" d="M432.806,1620.073a.63.63,0,0,1-.283-1.193c.052-.027,3.84-1.994,7.147-8.053a.63.63,0,0,1,1.106.6c-3.52,6.449-7.522,8.493-7.69,8.577A.628.628,0,0,1,432.806,1620.073Z" transform="translate(-182.706 -311.935)" fill="#fe976a"/>
    <path id="Trazado_21911" data-name="Trazado 21911" d="M443.114,1622.038a.63.63,0,0,1-.378-1.134,17.557,17.557,0,0,0,6.006-9.889.63.63,0,0,1,1.239.228,18.519,18.519,0,0,1-6.49,10.67A.626.626,0,0,1,443.114,1622.038Z" transform="translate(-189.424 -311.935)" fill="#fe976a"/>
    <path id="Trazado_21912" data-name="Trazado 21912" d="M452.77,1624.71a.63.63,0,0,1-.388-1.126c.051-.04,3.481-2.832,4.913-10.328a.63.63,0,0,1,1.238.237c-1.534,8.028-5.221,10.965-5.377,11.086A.629.629,0,0,1,452.77,1624.71Z" transform="translate(-195.716 -313.397)" fill="#fe976a"/>
    <path id="Trazado_21913" data-name="Trazado 21913" d="M261.6,1532.081c-8.423,5.581-21.415,8.6-27.331,9.754-.718-5.3.667-12.026,1.205-18.236,0,0,23.178-.6,23.871,5.643A4.058,4.058,0,0,0,261.6,1532.081Z" transform="translate(-53.603 -255.293)" fill="#fe976a"/>
    <path id="Trazado_21914" data-name="Trazado 21914" d="M337.975,1209.506c-10,5.3-20.983,1.247-29.364.987a16.287,16.287,0,0,0-5.236.546,69.637,69.637,0,0,1-18.879,2.452c-7.289-.046-14.608-1.344-19.063-5.043-8.919-7.407-3.477-12.547,2.116-19.651s8.465-17.837,7.558-29.473,10.128-17.237,17.686-11.342l27.058-4.383s8.163,19.2,10.581,31.3S350.236,1203.005,337.975,1209.506Z" transform="translate(-70.961 -7.661)" fill="#823315"/>
    <path id="Trazado_21915" data-name="Trazado 21915" d="M353.121,1291.553a16.284,16.284,0,0,0-5.236.546,69.651,69.651,0,0,1-18.879,2.452c6.118-11.081,8.751-26.567,8.751-26.567s12.093,6.106,14.058,8.923C353.331,1279.073,353.05,1285.809,353.121,1291.553Z" transform="translate(-115.471 -88.722)" fill="#632411"/>
    <path id="Trazado_21916" data-name="Trazado 21916" d="M377.894,1290.527v25.868s-1.17,7.183-9.275,6.631a9.7,9.7,0,0,1-9.21-7.92v-24.578Z" transform="translate(-135.285 -103.413)" fill="#ffaf82"/>
    <path id="Trazado_21917" data-name="Trazado 21917" d="M377.894,1290.527v24c-11.075-.468-15.795-9.628-18.485-18.281v-5.718Z" transform="translate(-135.285 -103.413)" fill="#fe976a"/>
    <path id="Trazado_21918" data-name="Trazado 21918" d="M370.785,1213.455c-18.576,0-27.44-11.157-28.557-26.555a59.519,59.519,0,0,1,1.8-18.341c5.9-24.035,39.454-10.884,39.454-10.884a52.229,52.229,0,0,1,5.1,13.97C392.687,1189.781,390.344,1213.455,370.785,1213.455Z" transform="translate(-124.007 -14.495)" fill="#ffaf82"/>
    <path id="Trazado_21919" data-name="Trazado 21919" d="M401.213,1291.569c-3.809,0-6.405-3.624-6.439-3.671a.63.63,0,0,1,1.031-.724h0c.148.209,3.659,5.078,8.3,2.253a.63.63,0,1,1,.655,1.075A6.747,6.747,0,0,1,401.213,1291.569Z" transform="translate(-158.257 -101.053)" fill="#6a2810"/>
    <path id="Trazado_21920" data-name="Trazado 21920" d="M382.375,1257.4a3.974,3.974,0,0,1-1.835-.466,2.96,2.96,0,0,1-1.712-2.553,3.355,3.355,0,0,1,1.44-2.881,1.8,1.8,0,0,1,1.846-.114.63.63,0,1,1-.592,1.112.531.531,0,0,0-.583.069,2.1,2.1,0,0,0-.851,1.764,1.707,1.707,0,0,0,1.034,1.487,2.381,2.381,0,0,0,2.948-.408,3.614,3.614,0,0,0,.434-4.28,3.322,3.322,0,0,0-3.211-1.949,3.105,3.105,0,0,0-2.7,2.057.63.63,0,1,1-1.188-.417,4.365,4.365,0,0,1,3.8-2.9,4.582,4.582,0,0,1,4.418,2.616,4.866,4.866,0,0,1-.653,5.757A3.612,3.612,0,0,1,382.375,1257.4Z" transform="translate(-146.985 -75.642)" fill="#fe976a"/>
    <path id="Trazado_21921" data-name="Trazado 21921" d="M459.865,1246.17a3.972,3.972,0,0,1-1.835-.466,2.96,2.96,0,0,1-1.712-2.553,3.355,3.355,0,0,1,1.44-2.882,1.8,1.8,0,0,1,1.846-.114.63.63,0,0,1-.593,1.112.53.53,0,0,0-.583.068,2.1,2.1,0,0,0-.851,1.764,1.707,1.707,0,0,0,1.034,1.487,2.385,2.385,0,0,0,2.948-.408,3.616,3.616,0,0,0,.434-4.281,3.311,3.311,0,0,0-3.211-1.949,3.1,3.1,0,0,0-2.7,2.057.63.63,0,1,1-1.188-.417,4.364,4.364,0,0,1,3.8-2.9,4.583,4.583,0,0,1,4.418,2.615,4.867,4.867,0,0,1-.653,5.758A3.61,3.61,0,0,1,459.865,1246.17Z" transform="translate(-197.485 -68.321)" fill="#fe976a"/>
    <path id="Trazado_21922" data-name="Trazado 21922" d="M434.168,1244.645a.63.63,0,0,1-.358-1.149l4.977-3.427-5.139-7.443a.63.63,0,0,1,1.037-.715l5.5,7.961a.629.629,0,0,1-.161.877l-5.5,3.784A.633.633,0,0,1,434.168,1244.645Z" transform="translate(-183.594 -65.036)" fill="#6a2810"/>
    <path id="Trazado_21923" data-name="Trazado 21923" d="M393.171,1224.815c0,1.694-.681,2.647-1.522,2.647s-1.522-.953-1.522-2.647.682-2.6,1.522-2.6S393.171,1223.121,393.171,1224.815Z" transform="translate(-155.303 -58.893)" fill="#6a2810"/>
    <path id="Trazado_21924" data-name="Trazado 21924" d="M388.585,1171.645a4,4,0,0,1-.6.47c-11.858,7.571-33.391,3.611-33.391,3.611.411-14.209-7.373-13.559-6.3-8.591,1.046,4.858,1.348,22.75-6.063,19.765a59.519,59.519,0,0,1,1.8-18.341c5.9-24.035,39.454-10.884,39.454-10.884A52.229,52.229,0,0,1,388.585,1171.645Z" transform="translate(-124.007 -14.495)" fill="#fe976a"/>
    <path id="Trazado_21925" data-name="Trazado 21925" d="M383.291,1156.36c5.371-3.431,3.281-20.574-13.821-23.9s-28.742,7.86-28.742,7.86-11.63,26.575-3.7,30.6,7.642-14.57,6.571-19.537,6.712-5.617,6.3,8.593C349.9,1159.972,371.435,1163.934,383.291,1156.36Z" transform="translate(-118.895)" fill="#823315"/>
    <path id="Trazado_21926" data-name="Trazado 21926" d="M250.839,1430.9a44.405,44.405,0,0,1-9.775,2.154c-16.708,1.684-26.1-8-26.1-8s9.07-38.9,13.5-46.156,15.4-8.524,15.4-8.524l2.028-.479c.47,7.684,1.251,23.33.512,31.778C245.4,1413.166,250.839,1430.9,250.839,1430.9Z" transform="translate(-41.151 -155.139)" fill="#ff630c"/>
    <path id="Trazado_21927" data-name="Trazado 21927" d="M308.253,1489.812a.63.63,0,0,1-.6-.445c-.224-.729-5.466-17.986-4.459-29.464a.63.63,0,1,1,1.255.11c-.986,11.236,4.355,28.809,4.409,28.985a.629.629,0,0,1-.6.815Z" transform="translate(-98.565 -213.418)" fill="#6a2810"/>
    <path id="Trazado_21928" data-name="Trazado 21928" d="M452.249,1217.28c0,1.694-.681,2.647-1.522,2.647s-1.522-.953-1.522-2.647.681-2.6,1.522-2.6S452.249,1215.586,452.249,1217.28Z" transform="translate(-193.804 -53.983)" fill="#6a2810"/>
    <path id="Trazado_21929" data-name="Trazado 21929" d="M326.292,1255.4c-2.6,8.011-16.826,5.675-17.685-3.319-.833-8.725,9.1-12.448,15.621-6.707S326.292,1255.4,326.292,1255.4Z" transform="translate(-102.145 -72.195)" fill="#ffaf82"/>
    <path id="Trazado_21930" data-name="Trazado 21930" d="M326.538,1262.609a.63.63,0,0,1-.506-1c.025-.035,2.568-3.554,1.2-6.188a.63.63,0,1,1,1.118-.582c1.734,3.333-1.176,7.348-1.3,7.517A.628.628,0,0,1,326.538,1262.609Z" transform="translate(-113.453 -79.933)" fill="#fe976a"/>
    <path id="Trazado_21931" data-name="Trazado 21931" d="M333.529,1265.953a8.542,8.542,0,0,1-2.713-.393.63.63,0,1,1,.406-1.192,11.257,11.257,0,0,0,5.239-.015.63.63,0,0,1,.305,1.222A14.729,14.729,0,0,1,333.529,1265.953Z" transform="translate(-116.373 -86.343)" fill="#fe976a"/>
  </g>
</svg>
